<?xml version="1.0" standalone="no"?>
<!DOCTYPE svg PUBLIC "-//W3C//DTD SVG 1.1//EN" "http://www.w3.org/Graphics/SVG/1.1/DTD/svg11.dtd" >
<svg xmlns="http://www.w3.org/2000/svg" xmlns:xlink="http://www.w3.org/1999/xlink" version="1.1">
<metadata>
Created by FontForge 20190801 at Sun Nov  1 15:21:11 2020
 By Unknown
Jonas Deuter
</metadata>
<defs>
<font id="2070-Bold156" horiz-adv-x="590" >
  <font-face 
    font-family="2070"
    font-weight="400"
    font-style="italic"
    font-stretch="normal"
    units-per-em="1000"
    panose-1="0 0 0 0 0 0 0 0 0 0"
    ascent="800"
    descent="-200"
    x-height="484"
    cap-height="700"
    bbox="-126 -202 970 956"
    underline-thickness="50"
    underline-position="-100"
    slope="180"
    unicode-range="U+0020-FB00"
  />
<missing-glyph horiz-adv-x="734" 
d="M174 448c-46 0 -97 9 -135 25l29 82c32 -14 70 -21 106 -21s74 7 106 21l29 -82c-38 -16 -89 -25 -135 -25zM558 448c-46 0 -97 9 -135 25l29 82c32 -14 70 -21 106 -21s74 7 106 21l29 -82c-38 -16 -89 -25 -135 -25zM36 0c0 201 137 355 331 355s331 -154 331 -355h-92
c0 159 -96 269 -239 269s-239 -110 -239 -269h-92z" />
    <glyph glyph-name="f_f" unicode="ff" horiz-adv-x="707" 
d="M79 0v337h-66v147h66v21c0 118 77 195 199 195h95v-147h-75c-44 0 -63 -17 -63 -54v-15h166v21c0 118 77 195 200 195h94v-147h-75c-43 0 -63 -17 -63 -54v-15h134v-147h-134v-337h-156v337h-166v-337h-156z" />
    <glyph glyph-name="f_i" unicode="fi" horiz-adv-x="636" 
d="M79 0v337h-66v147h66v21c0 118 77 195 199 195h62v-147h-42c-44 0 -63 -17 -63 -54v-15h351v-484h-156v337h-195v-337h-156zM410 530v170h195v-170h-195z" />
    <glyph glyph-name="f_l" unicode="fl" horiz-adv-x="636" 
d="M79 0v337h-66v147h66v21c0 118 77 195 199 195h308v-700h-156v553h-132c-44 0 -63 -17 -63 -54v-15h134v-147h-134v-337h-156z" />
    <glyph glyph-name=".notdef" horiz-adv-x="734" 
d="M174 448c-46 0 -97 9 -135 25l29 82c32 -14 70 -21 106 -21s74 7 106 21l29 -82c-38 -16 -89 -25 -135 -25zM558 448c-46 0 -97 9 -135 25l29 82c32 -14 70 -21 106 -21s74 7 106 21l29 -82c-38 -16 -89 -25 -135 -25zM36 0c0 201 137 355 331 355s331 -154 331 -355h-92
c0 159 -96 269 -239 269s-239 -110 -239 -269h-92z" />
    <glyph glyph-name="space" unicode=" " horiz-adv-x="240" 
 />
    <glyph glyph-name="A" unicode="A" horiz-adv-x="730" 
d="M3 0l271 700h173l279 -700h-176l-46 121h-280l-44 -121h-177zM356 493l-76 -214h166l-82 214h-8z" />
    <glyph glyph-name="Agrave" unicode="&#xc0;" horiz-adv-x="730" 
d="M288 772l-151 144h169l132 -144h-150zM3 0l271 700h173l279 -700h-176l-46 121h-280l-44 -121h-177zM356 493l-76 -214h166l-82 214h-8z" />
    <glyph glyph-name="Aacute" unicode="&#xc1;" horiz-adv-x="730" 
d="M438 772h-150l132 144h169zM3 0l271 700h173l279 -700h-176l-46 121h-280l-44 -121h-177zM356 493l-76 -214h166l-82 214h-8z" />
    <glyph glyph-name="Acircumflex" unicode="&#xc2;" horiz-adv-x="730" 
d="M150 772l100 144h219l100 -144h-140l-65 78h-8l-66 -78h-140zM3 0l271 700h173l279 -700h-176l-46 121h-280l-44 -121h-177zM356 493l-76 -214h166l-82 214h-8z" />
    <glyph glyph-name="Atilde" unicode="&#xc3;" horiz-adv-x="730" 
d="M151 763c1 95 59 155 140 155c26 0 47 -7 65 -17l21 -11c15 -9 29 -16 45 -16c20 0 31 10 37 33h106c-1 -92 -56 -147 -127 -147c-36 0 -60 9 -80 18l-19 12c-14 7 -25 13 -38 13c-22 0 -36 -17 -38 -40h-112zM3 0l271 700h173l279 -700h-176l-46 121h-280l-44 -121h-177
zM356 493l-76 -214h166l-82 214h-8z" />
    <glyph glyph-name="Adieresis" unicode="&#xc4;" horiz-adv-x="730" 
d="M175 759v157h163v-157h-163zM388 759v157h163v-157h-163zM3 0l271 700h173l279 -700h-176l-46 121h-280l-44 -121h-177zM356 493l-76 -214h166l-82 214h-8z" />
    <glyph glyph-name="Aring" unicode="&#xc5;" horiz-adv-x="730" 
d="M3 0l267 690c-8 14 -12 30 -12 47c0 54 45 97 102 97s102 -43 102 -97c0 -16 -4 -32 -12 -45l276 -692h-176l-46 121h-280l-44 -121h-177zM360 707c18 0 31 13 31 30c0 16 -13 30 -31 30s-31 -14 -31 -30c0 -17 13 -30 31 -30zM356 493l-76 -214h166l-82 214h-8z" />
    <glyph glyph-name="B" unicode="B" horiz-adv-x="674" 
d="M50 0v700h325c140 0 243 -85 243 -198c0 -64 -32 -116 -89 -145v-8c71 -31 112 -92 112 -161c0 -112 -97 -188 -243 -188h-348zM214 420h164c47 0 75 23 75 60c0 39 -33 63 -83 63h-156v-123zM214 156h167c59 0 94 22 94 62c0 38 -31 61 -86 61h-175v-123z" />
    <glyph glyph-name="C" unicode="C" horiz-adv-x="735" 
d="M368 -12c-197 0 -341 156 -341 361c0 204 144 360 347 360c164 0 288 -101 331 -263l-161 -33c-25 94 -82 140 -169 140c-112 0 -182 -84 -182 -204c0 -121 70 -205 175 -205c86 0 150 50 177 138l159 -47c-49 -149 -175 -247 -336 -247z" />
    <glyph glyph-name="D" unicode="D" horiz-adv-x="709" 
d="M50 0v700h273c213 0 360 -143 360 -350s-147 -350 -360 -350h-273zM214 159h109c120 0 193 70 193 191s-73 191 -193 191h-109v-382z" />
    <glyph glyph-name="E" unicode="E" horiz-adv-x="618" 
d="M50 0v700h522v-159h-358v-109h310v-158h-310v-115h358v-159h-522z" />
    <glyph glyph-name="Egrave" unicode="&#xc8;" horiz-adv-x="593" 
d="M237 772l-151 144h169l132 -144h-150zM50 0v700h522v-159h-358v-109h310v-158h-310v-115h358v-159h-522z" />
    <glyph glyph-name="Eacute" unicode="&#xc9;" horiz-adv-x="593" 
d="M387 772h-150l132 144h169zM50 0v700h522v-159h-358v-109h310v-158h-310v-115h358v-159h-522z" />
    <glyph glyph-name="Ecircumflex" unicode="&#xca;" horiz-adv-x="593" 
d="M92 772l100 144h219l100 -144h-140l-65 78h-8l-66 -78h-140zM50 0v700h522v-159h-358v-109h310v-158h-310v-115h358v-159h-522z" />
    <glyph glyph-name="Edieresis" unicode="&#xcb;" horiz-adv-x="593" 
d="M124 759v157h163v-157h-163zM337 759v157h163v-157h-163zM50 0v700h522v-159h-358v-109h310v-158h-310v-115h358v-159h-522z" />
    <glyph glyph-name="F" unicode="F" horiz-adv-x="598" 
d="M50 0v700h522v-159h-358v-119h310v-157h-310v-265h-164z" />
    <glyph glyph-name="G" unicode="G" horiz-adv-x="764" 
d="M356 -12c-175 0 -330 164 -330 364c0 211 146 365 351 365c153 0 275 -95 326 -245l-156 -47c-28 86 -88 136 -170 136c-110 0 -184 -86 -184 -208s81 -209 195 -209c83 0 146 39 176 107h-190v160h340v-411h-150v75h-8c-53 -57 -124 -87 -200 -87z" />
    <glyph glyph-name="H" unicode="H" horiz-adv-x="755" 
d="M50 0v700h164v-279h327v279h165v-700h-165v261h-327v-261h-164z" />
    <glyph glyph-name="I" unicode="I" horiz-adv-x="264" 
d="M50 0v700h164v-700h-164z" />
    <glyph glyph-name="Igrave" unicode="&#xcc;" horiz-adv-x="264" 
d="M25 772l-151 144h169l132 -144h-150zM50 0v700h164v-700h-164z" />
    <glyph glyph-name="Iacute" unicode="&#xcd;" horiz-adv-x="264" 
d="M206 772h-150l132 144h169zM50 0v700h164v-700h-164z" />
    <glyph glyph-name="Icircumflex" unicode="&#xce;" horiz-adv-x="264" 
d="M-77 772l100 144h219l100 -144h-140l-65 78h-8l-66 -78h-140zM50 0v700h164v-700h-164z" />
    <glyph glyph-name="Idieresis" unicode="&#xcf;" horiz-adv-x="264" 
d="M-56 759v157h163v-157h-163zM157 759v157h163v-157h-163zM50 0v700h164v-700h-164z" />
    <glyph glyph-name="J" unicode="J" horiz-adv-x="422" 
d="M24 0v164h60c92 0 138 51 138 151v385h164v-384c0 -191 -121 -316 -302 -316h-60z" />
    <glyph glyph-name="K" unicode="K" horiz-adv-x="704" 
d="M50 0v700h164v-289h9l237 289h200l-254 -305l286 -395h-197l-194 270l-87 -104v-166h-164z" />
    <glyph glyph-name="L" unicode="L" horiz-adv-x="572" 
d="M50 0v700h164v-541h350v-159h-514z" />
    <glyph glyph-name="M" unicode="M" horiz-adv-x="904" 
d="M50 0v700h223l182 -424h8l186 424h206v-700h-165l4 406h-8l-176 -406h-115l-176 411h-8l4 -411h-165z" />
    <glyph glyph-name="N" unicode="N" horiz-adv-x="729" 
d="M50 0v700h156l304 -402h8l-4 402h165v-700h-137l-323 417h-8l4 -417h-165z" />
    <glyph glyph-name="Ntilde" unicode="&#xd1;" horiz-adv-x="729" 
d="M153 763c1 95 59 155 140 155c26 0 47 -7 65 -17l21 -11c15 -9 29 -16 45 -16c20 0 31 10 37 33h106c-1 -92 -56 -147 -127 -147c-36 0 -60 9 -80 18l-19 12c-14 7 -25 13 -38 13c-22 0 -36 -17 -38 -40h-112zM50 0v700h156l304 -402h8l-4 402h165v-700h-137l-323 417h-8
l4 -417h-165z" />
    <glyph glyph-name="O" unicode="O" horiz-adv-x="763" 
d="M382 -12c-208 0 -355 156 -355 361c0 204 147 360 355 360s355 -156 355 -360c0 -205 -147 -361 -355 -361zM382 144c116 0 188 84 188 205c0 120 -72 204 -188 204s-189 -84 -189 -204c0 -121 73 -205 189 -205z" />
    <glyph glyph-name="Ograve" unicode="&#xd2;" horiz-adv-x="763" 
d="M292 772l-151 144h169l132 -144h-150zM382 -12c-208 0 -355 156 -355 361c0 204 147 360 355 360s355 -156 355 -360c0 -205 -147 -361 -355 -361zM382 144c116 0 188 84 188 205c0 120 -72 204 -188 204s-189 -84 -189 -204c0 -121 73 -205 189 -205z" />
    <glyph glyph-name="Oacute" unicode="&#xd3;" horiz-adv-x="763" 
d="M442 772h-150l132 144h169zM382 -12c-208 0 -355 156 -355 361c0 204 147 360 355 360s355 -156 355 -360c0 -205 -147 -361 -355 -361zM382 144c116 0 188 84 188 205c0 120 -72 204 -188 204s-189 -84 -189 -204c0 -121 73 -205 189 -205z" />
    <glyph glyph-name="Ocircumflex" unicode="&#xd4;" horiz-adv-x="763" 
d="M147 772l100 144h219l100 -144h-140l-65 78h-8l-66 -78h-140zM382 -12c-208 0 -355 156 -355 361c0 204 147 360 355 360s355 -156 355 -360c0 -205 -147 -361 -355 -361zM382 144c116 0 188 84 188 205c0 120 -72 204 -188 204s-189 -84 -189 -204
c0 -121 73 -205 189 -205z" />
    <glyph glyph-name="Otilde" unicode="&#xd5;" horiz-adv-x="763" 
d="M148 763c1 95 59 155 140 155c26 0 47 -7 65 -17l21 -11c15 -9 29 -16 45 -16c20 0 31 10 37 33h106c-1 -92 -56 -147 -127 -147c-36 0 -60 9 -80 18l-19 12c-14 7 -25 13 -38 13c-22 0 -36 -17 -38 -40h-112zM382 -12c-208 0 -355 156 -355 361c0 204 147 360 355 360
s355 -156 355 -360c0 -205 -147 -361 -355 -361zM382 144c116 0 188 84 188 205c0 120 -72 204 -188 204s-189 -84 -189 -204c0 -121 73 -205 189 -205z" />
    <glyph glyph-name="Odieresis" unicode="&#xd6;" horiz-adv-x="763" 
d="M179 759v157h163v-157h-163zM392 759v157h163v-157h-163zM382 -12c-208 0 -355 156 -355 361c0 204 147 360 355 360s355 -156 355 -360c0 -205 -147 -361 -355 -361zM382 144c116 0 188 84 188 205c0 120 -72 204 -188 204s-189 -84 -189 -204c0 -121 73 -205 189 -205z
" />
    <glyph glyph-name="P" unicode="P" horiz-adv-x="654" 
d="M50 0v700h310c152 0 266 -99 267 -236c0 -137 -115 -237 -267 -237h-146v-227h-164zM214 386h156c61 0 97 29 97 78c0 48 -36 77 -97 77h-156v-155z" />
    <glyph glyph-name="Q" unicode="Q" horiz-adv-x="763" 
d="M382 -12c-208 0 -355 152 -355 356s147 356 355 356s355 -152 355 -356c0 -76 -20 -144 -56 -201l60 -59l-115 -115l-64 65c-52 -30 -113 -46 -180 -46zM382 144c21 0 40 5 57 12l-97 97l115 114l100 -100c9 23 13 49 13 77c0 120 -72 200 -188 200s-189 -80 -189 -200
s73 -200 189 -200z" />
    <glyph glyph-name="R" unicode="R" horiz-adv-x="677" 
d="M50 0v700h307c152 0 265 -97 266 -232c1 -89 -48 -161 -126 -199l158 -269h-180l-130 234h-131v-234h-164zM214 393h153c61 0 96 27 96 75c0 46 -35 73 -96 73h-153v-148z" />
    <glyph glyph-name="S" unicode="S" horiz-adv-x="678" 
d="M370 -12c-167 0 -297 92 -348 252l159 46c27 -91 101 -147 187 -147c68 0 117 29 117 69c0 35 -21 53 -87 68l-139 32c-151 36 -217 91 -217 192c0 130 115 212 301 212c150 0 266 -85 316 -228l-159 -40c-28 79 -81 115 -173 115c-76 0 -119 -21 -119 -59
c0 -28 18 -40 80 -54l90 -21c216 -50 277 -97 277 -216c0 -134 -115 -221 -285 -221z" />
    <glyph glyph-name="T" unicode="T" horiz-adv-x="595" 
d="M215 0v541h-213v159h591v-159h-213v-541h-165z" />
    <glyph glyph-name="U" unicode="U" horiz-adv-x="732" 
d="M365 -12c-196 0 -329 144 -329 346v366h165v-369c0 -113 61 -181 164 -181c105 0 166 68 166 181v369h165v-366c0 -202 -133 -346 -331 -346z" />
    <glyph glyph-name="Ugrave" unicode="&#xd9;" horiz-adv-x="732" 
d="M269 772l-151 144h169l132 -144h-150zM365 -12c-196 0 -329 144 -329 346v366h165v-369c0 -113 61 -181 164 -181c105 0 166 68 166 181v369h165v-366c0 -202 -133 -346 -331 -346z" />
    <glyph glyph-name="Uacute" unicode="&#xda;" horiz-adv-x="732" 
d="M419 772h-150l132 144h169zM365 -12c-196 0 -329 144 -329 346v366h165v-369c0 -113 61 -181 164 -181c105 0 166 68 166 181v369h165v-366c0 -202 -133 -346 -331 -346z" />
    <glyph glyph-name="Ucircumflex" unicode="&#xdb;" horiz-adv-x="732" 
d="M155 772l100 144h219l100 -144h-140l-65 78h-8l-66 -78h-140zM365 -12c-196 0 -329 144 -329 346v366h165v-369c0 -113 61 -181 164 -181c105 0 166 68 166 181v369h165v-366c0 -202 -133 -346 -331 -346z" />
    <glyph glyph-name="Udieresis" unicode="&#xdc;" horiz-adv-x="732" 
d="M177 759v157h163v-157h-163zM390 759v157h163v-157h-163zM365 -12c-196 0 -329 144 -329 346v366h165v-369c0 -113 61 -181 164 -181c105 0 166 68 166 181v369h165v-366c0 -202 -133 -346 -331 -346z" />
    <glyph glyph-name="V" unicode="V" horiz-adv-x="727" 
d="M287 0l-283 700h176l187 -486h8l181 486h167l-264 -700h-172z" />
    <glyph glyph-name="W" unicode="W" horiz-adv-x="974" 
d="M198 0l-194 700h163l126 -491h8l114 491h144l115 -490h8l128 490h160l-194 -700h-186l-96 371h-8l-97 -371h-191z" />
    <glyph glyph-name="X" unicode="X" horiz-adv-x="728" 
d="M4 0l263 352l-254 348h200l154 -219h8l162 219h185l-257 -346l259 -354h-201l-156 221h-8l-161 -221h-194z" />
    <glyph glyph-name="Y" unicode="Y" horiz-adv-x="701" 
d="M267 0v270l-263 430h186l156 -258h8l157 258h186l-266 -430v-270h-164z" />
    <glyph glyph-name="Yacute" unicode="&#xdd;" horiz-adv-x="724" 
d="M433 772h-150l132 144h169zM267 0v270l-263 430h186l156 -258h8l157 258h186l-266 -430v-270h-164z" />
    <glyph glyph-name="Z" unicode="Z" horiz-adv-x="631" 
d="M24 0v127l361 412v8h-361v153h583v-127l-356 -412v-8h356v-153h-583z" />
    <glyph glyph-name="a" unicode="a" horiz-adv-x="606" 
d="M242 -12c-123 0 -223 114 -223 254s100 254 224 254c61 0 115 -25 150 -69h8v57h156v-484h-156v57h-8c-35 -44 -90 -69 -151 -69zM290 120c65 0 114 52 114 122s-49 122 -114 122c-66 0 -116 -52 -116 -122s50 -122 116 -122z" />
    <glyph glyph-name="agrave" unicode="&#xe0;" horiz-adv-x="606" 
d="M214 556l-151 144h169l132 -144h-150zM242 -12c-123 0 -223 114 -223 254s100 254 224 254c61 0 115 -25 150 -69h8v57h156v-484h-156v57h-8c-35 -44 -90 -69 -151 -69zM290 120c65 0 114 52 114 122s-49 122 -114 122c-66 0 -116 -52 -116 -122s50 -122 116 -122z" />
    <glyph glyph-name="aacute" unicode="&#xe1;" horiz-adv-x="606" 
d="M364 556h-150l132 144h169zM242 -12c-123 0 -223 114 -223 254s100 254 224 254c61 0 115 -25 150 -69h8v57h156v-484h-156v57h-8c-35 -44 -90 -69 -151 -69zM290 120c65 0 114 52 114 122s-49 122 -114 122c-66 0 -116 -52 -116 -122s50 -122 116 -122z" />
    <glyph glyph-name="acircumflex" unicode="&#xe2;" horiz-adv-x="606" 
d="M79 556l100 144h219l100 -144h-140l-65 78h-8l-66 -78h-140zM242 -12c-123 0 -223 114 -223 254s100 254 224 254c61 0 115 -25 150 -69h8v57h156v-484h-156v57h-8c-35 -44 -90 -69 -151 -69zM290 120c65 0 114 52 114 122s-49 122 -114 122c-66 0 -116 -52 -116 -122
s50 -122 116 -122z" />
    <glyph glyph-name="atilde" unicode="&#xe3;" horiz-adv-x="606" 
d="M77 547c1 95 59 155 140 155c26 0 47 -7 65 -17l21 -11c15 -9 29 -16 45 -16c20 0 31 10 37 33h106c-1 -92 -56 -147 -127 -147c-36 0 -60 9 -80 18l-19 12c-14 7 -25 13 -38 13c-22 0 -36 -17 -38 -40h-112zM242 -12c-123 0 -223 114 -223 254s100 254 224 254
c61 0 115 -25 150 -69h8v57h156v-484h-156v57h-8c-35 -44 -90 -69 -151 -69zM290 120c65 0 114 52 114 122s-49 122 -114 122c-66 0 -116 -52 -116 -122s50 -122 116 -122z" />
    <glyph glyph-name="adieresis" unicode="&#xe4;" horiz-adv-x="606" 
d="M101 543v157h163v-157h-163zM314 543v157h163v-157h-163zM242 -12c-123 0 -223 114 -223 254s100 254 224 254c61 0 115 -25 150 -69h8v57h156v-484h-156v57h-8c-35 -44 -90 -69 -151 -69zM290 120c65 0 114 52 114 122s-49 122 -114 122c-66 0 -116 -52 -116 -122
s50 -122 116 -122z" />
    <glyph glyph-name="aring" unicode="&#xe5;" horiz-adv-x="606" 
d="M289 518c-57 0 -102 43 -102 97s45 97 102 97s102 -43 102 -97s-45 -97 -102 -97zM289 585c18 0 31 13 31 30c0 16 -13 30 -31 30s-31 -14 -31 -30c0 -17 13 -30 31 -30zM242 -12c-123 0 -223 114 -223 254s100 254 224 254c61 0 115 -25 150 -69h8v57h156v-484h-156v57
h-8c-35 -44 -90 -69 -151 -69zM290 120c65 0 114 52 114 122s-49 122 -114 122c-66 0 -116 -52 -116 -122s50 -122 116 -122z" />
    <glyph glyph-name="b" unicode="b" horiz-adv-x="606" 
d="M50 0v700h155v-273h8c35 44 89 69 151 69c123 0 223 -114 223 -254s-100 -254 -223 -254c-61 0 -116 25 -151 69h-8v-57h-155zM317 120c65 0 115 52 115 122s-50 122 -115 122s-115 -52 -115 -122s50 -122 115 -122z" />
    <glyph glyph-name="c" unicode="c" horiz-adv-x="555" 
d="M281 -12c-151 0 -256 105 -256 253c0 150 105 255 256 255c134 0 231 -82 250 -208l-154 -21c-8 60 -42 94 -96 94c-62 0 -100 -47 -100 -120c0 -71 38 -118 100 -118c51 0 85 30 95 81l154 -22c-23 -118 -119 -194 -249 -194z" />
    <glyph glyph-name="d" unicode="d" horiz-adv-x="606" 
d="M242 -12c-123 0 -223 114 -223 254s100 254 224 254c61 0 115 -25 150 -69h8v273h156v-700h-156v57h-8c-35 -44 -90 -69 -151 -69zM290 120c65 0 114 52 114 122s-49 122 -114 122c-66 0 -116 -52 -116 -122s50 -122 116 -122z" />
    <glyph glyph-name="e" unicode="e" horiz-adv-x="550" 
d="M270 -12c-147 0 -248 106 -248 254s101 254 251 254c152 0 254 -105 254 -254v-41h-354c13 -53 51 -87 98 -87c45 0 81 26 97 71l139 -38c-34 -96 -126 -159 -237 -159zM278 379c-51 0 -88 -31 -102 -83h200c-14 52 -49 83 -98 83z" />
    <glyph glyph-name="egrave" unicode="&#xe8;" horiz-adv-x="550" 
d="M211 556l-151 144h169l132 -144h-150zM270 -12c-147 0 -248 106 -248 254s101 254 251 254c152 0 254 -105 254 -254v-41h-354c13 -53 51 -87 98 -87c45 0 81 26 97 71l139 -38c-34 -96 -126 -159 -237 -159zM278 379c-51 0 -88 -31 -102 -83h200c-14 52 -49 83 -98 83z
" />
    <glyph glyph-name="eacute" unicode="&#xe9;" horiz-adv-x="550" 
d="M361 556h-150l132 144h169zM270 -12c-147 0 -248 106 -248 254s101 254 251 254c152 0 254 -105 254 -254v-41h-354c13 -53 51 -87 98 -87c45 0 81 26 97 71l139 -38c-34 -96 -126 -159 -237 -159zM278 379c-51 0 -88 -31 -102 -83h200c-14 52 -49 83 -98 83z" />
    <glyph glyph-name="ecircumflex" unicode="&#xea;" horiz-adv-x="550" 
d="M74 556l100 144h219l100 -144h-140l-65 78h-8l-66 -78h-140zM270 -12c-147 0 -248 106 -248 254s101 254 251 254c152 0 254 -105 254 -254v-41h-354c13 -53 51 -87 98 -87c45 0 81 26 97 71l139 -38c-34 -96 -126 -159 -237 -159zM278 379c-51 0 -88 -31 -102 -83h200
c-14 52 -49 83 -98 83z" />
    <glyph glyph-name="edieresis" unicode="&#xeb;" horiz-adv-x="550" 
d="M98 543v157h163v-157h-163zM311 543v157h163v-157h-163zM270 -12c-147 0 -248 106 -248 254s101 254 251 254c152 0 254 -105 254 -254v-41h-354c13 -53 51 -87 98 -87c45 0 81 26 97 71l139 -38c-34 -96 -126 -159 -237 -159zM278 379c-51 0 -88 -31 -102 -83h200
c-14 52 -49 83 -98 83z" />
    <glyph glyph-name="f" unicode="f" horiz-adv-x="380" 
d="M79 0v337h-66v147h66v21c0 116 75 195 194 195h100v-147h-76c-44 0 -62 -18 -62 -56v-13h134v-147h-134v-337h-156z" />
    <glyph glyph-name="g" unicode="g" horiz-adv-x="600" 
d="M301 -202c-142 0 -240 74 -257 192l117 15c-83 37 -142 129 -142 237c0 140 100 254 224 254c61 0 115 -25 150 -69h8v57h156v-441c0 -144 -107 -245 -256 -245zM290 120c65 0 114 52 114 122s-49 122 -114 122c-66 0 -116 -52 -116 -122s50 -122 116 -122zM242 -12
c-13 0 -26 1 -38 4c14 -47 48 -72 97 -72c59 0 100 44 100 108v29h-8c-35 -44 -90 -69 -151 -69z" />
    <glyph glyph-name="h" unicode="h" horiz-adv-x="617" 
d="M50 0v700h156v-290h8c50 60 100 86 164 86c116 0 194 -86 194 -219v-277h-156v247c0 77 -31 117 -92 117c-67 0 -118 -50 -118 -117v-247h-156z" />
    <glyph glyph-name="i" unicode="i" horiz-adv-x="256" 
d="M31 530v170h194v-170h-194zM50 0v484h156v-484h-156z" />
    <glyph glyph-name="igrave" unicode="&#xec;" horiz-adv-x="258" 
d="M54 556l-151 144h169l132 -144h-150zM51 0v484h156v-484h-156z" />
    <glyph glyph-name="iacute" unicode="&#xed;" horiz-adv-x="258" 
d="M204 556h-150l132 144h169zM51 0v484h156v-484h-156z" />
    <glyph glyph-name="icircumflex" unicode="&#xee;" horiz-adv-x="258" 
d="M-81 556l100 144h219l100 -144h-140l-65 78h-8l-66 -78h-140zM51 0v484h156v-484h-156z" />
    <glyph glyph-name="idieresis" unicode="&#xef;" horiz-adv-x="258" 
d="M-59 543v157h163v-157h-163zM154 543v157h163v-157h-163zM51 0v484h156v-484h-156z" />
    <glyph glyph-name="j" unicode="j" horiz-adv-x="267" 
d="M37 530v170h194v-170h-194zM56 -190v674h156v-674h-156z" />
    <glyph glyph-name="k" unicode="k" horiz-adv-x="571" 
d="M49 0v700h156v-372h8l146 156h189l-178 -189l194 -295h-176l-121 188l-62 -67v-121h-156z" />
    <glyph glyph-name="l" unicode="l" horiz-adv-x="256" 
d="M50 0v700h156v-700h-156z" />
    <glyph glyph-name="m" unicode="m" horiz-adv-x="897" 
d="M50 0v484h156v-72h8c32 56 81 84 147 84c72 0 121 -32 147 -95h8c33 56 90 95 154 95c120 0 181 -73 181 -221v-275h-156v247c0 82 -21 117 -74 117c-57 0 -93 -44 -93 -117v-247h-155v247c0 82 -22 117 -75 117c-57 0 -92 -44 -92 -117v-247h-156z" />
    <glyph glyph-name="n" unicode="n" horiz-adv-x="617" 
d="M50 0v484h156v-74h8c50 60 100 86 164 86c116 0 194 -86 194 -219v-277h-156v247c0 77 -31 117 -92 117c-67 0 -118 -50 -118 -117v-247h-156z" />
    <glyph glyph-name="ntilde" unicode="&#xf1;" horiz-adv-x="617" 
d="M126 547c1 95 59 155 140 155c26 0 47 -7 65 -17l21 -11c15 -9 29 -16 45 -16c20 0 31 10 37 33h106c-1 -92 -56 -147 -127 -147c-36 0 -60 9 -80 18l-19 12c-14 7 -25 13 -38 13c-22 0 -36 -17 -38 -40h-112zM50 0v484h156v-74h8c50 60 100 86 164 86
c116 0 194 -86 194 -219v-277h-156v247c0 77 -31 117 -92 117c-67 0 -118 -50 -118 -117v-247h-156z" />
    <glyph glyph-name="o" unicode="o" horiz-adv-x="561" 
d="M281 -12c-152 0 -259 106 -259 254s107 254 259 254c151 0 258 -106 258 -254s-107 -254 -258 -254zM281 123c61 0 102 49 102 119s-41 119 -102 119c-62 0 -104 -49 -104 -119s42 -119 104 -119z" />
    <glyph glyph-name="ograve" unicode="&#xf2;" horiz-adv-x="560" 
d="M208 556l-151 144h169l132 -144h-150zM281 -12c-152 0 -259 106 -259 254s107 254 259 254c151 0 258 -106 258 -254s-107 -254 -258 -254zM281 123c61 0 102 49 102 119s-41 119 -102 119c-62 0 -104 -49 -104 -119s42 -119 104 -119z" />
    <glyph glyph-name="oacute" unicode="&#xf3;" horiz-adv-x="560" 
d="M358 556h-150l132 144h169zM281 -12c-152 0 -259 106 -259 254s107 254 259 254c151 0 258 -106 258 -254s-107 -254 -258 -254zM281 123c61 0 102 49 102 119s-41 119 -102 119c-62 0 -104 -49 -104 -119s42 -119 104 -119z" />
    <glyph glyph-name="ocircumflex" unicode="&#xf4;" horiz-adv-x="560" 
d="M73 556l100 144h219l100 -144h-140l-65 78h-8l-66 -78h-140zM281 -12c-152 0 -259 106 -259 254s107 254 259 254c151 0 258 -106 258 -254s-107 -254 -258 -254zM281 123c61 0 102 49 102 119s-41 119 -102 119c-62 0 -104 -49 -104 -119s42 -119 104 -119z" />
    <glyph glyph-name="otilde" unicode="&#xf5;" horiz-adv-x="560" 
d="M71 547c1 95 59 155 140 155c26 0 47 -7 65 -17l21 -11c15 -9 29 -16 45 -16c20 0 31 10 37 33h106c-1 -92 -56 -147 -127 -147c-36 0 -60 9 -80 18l-19 12c-14 7 -25 13 -38 13c-22 0 -36 -17 -38 -40h-112zM281 -12c-152 0 -259 106 -259 254s107 254 259 254
c151 0 258 -106 258 -254s-107 -254 -258 -254zM281 123c61 0 102 49 102 119s-41 119 -102 119c-62 0 -104 -49 -104 -119s42 -119 104 -119z" />
    <glyph glyph-name="odieresis" unicode="&#xf6;" horiz-adv-x="560" 
d="M95 543v157h163v-157h-163zM308 543v157h163v-157h-163zM281 -12c-152 0 -259 106 -259 254s107 254 259 254c151 0 258 -106 258 -254s-107 -254 -258 -254zM281 123c61 0 102 49 102 119s-41 119 -102 119c-62 0 -104 -49 -104 -119s42 -119 104 -119z" />
    <glyph glyph-name="p" unicode="p" horiz-adv-x="606" 
d="M50 -190v674h155v-57h8c35 44 89 69 151 69c123 0 223 -114 223 -254s-100 -254 -223 -254c-61 0 -116 25 -151 69h-8v-247h-155zM317 120c65 0 115 52 115 122s-50 122 -115 122s-115 -52 -115 -122s50 -122 115 -122z" />
    <glyph glyph-name="q" unicode="q" horiz-adv-x="606" 
d="M242 -12c-123 0 -223 114 -223 254s100 254 224 254c61 0 115 -25 150 -69h8v57h156v-674h-156v247h-8c-35 -44 -90 -69 -151 -69zM290 120c65 0 114 52 114 122s-49 122 -114 122c-66 0 -116 -52 -116 -122s50 -122 116 -122z" />
    <glyph glyph-name="r" unicode="r" horiz-adv-x="425" 
d="M50 0v484h156v-101h8c30 65 92 101 164 101h36v-147h-68c-86 0 -140 -55 -140 -138v-199h-156z" />
    <glyph glyph-name="s" unicode="s" horiz-adv-x="546" 
d="M290 -12c-150 0 -246 63 -267 183l151 20c10 -53 54 -84 120 -84c42 0 68 12 68 30s-21 28 -66 35l-86 13c-116 17 -178 67 -178 146c0 96 95 165 235 165c137 0 225 -64 257 -190l-152 -19c-9 55 -53 91 -110 91c-38 0 -68 -18 -68 -40c0 -18 18 -28 61 -34l85 -13
c130 -19 186 -64 186 -139c0 -101 -93 -164 -236 -164z" />
    <glyph glyph-name="t" unicode="t" horiz-adv-x="382" 
d="M362 0h-117c-100 0 -171 68 -171 164v173h-66v147h66v121h156v-121h132v-147h-132v-138c0 -32 24 -52 60 -52h72v-147z" />
    <glyph glyph-name="u" unicode="u" horiz-adv-x="615" 
d="M246 -12c-115 0 -201 105 -201 244v252h156v-243c0 -73 39 -121 102 -121c64 0 107 51 107 123v241h156v-484h-156v72h-8c-53 -60 -100 -84 -156 -84z" />
    <glyph glyph-name="ugrave" unicode="&#xf9;" horiz-adv-x="615" 
d="M231 556l-151 144h169l132 -144h-150zM246 -12c-115 0 -201 105 -201 244v252h156v-243c0 -73 39 -121 102 -121c64 0 107 51 107 123v241h156v-484h-156v72h-8c-53 -60 -100 -84 -156 -84z" />
    <glyph glyph-name="uacute" unicode="&#xfa;" horiz-adv-x="615" 
d="M381 556h-150l132 144h169zM246 -12c-115 0 -201 105 -201 244v252h156v-243c0 -73 39 -121 102 -121c64 0 107 51 107 123v241h156v-484h-156v72h-8c-53 -60 -100 -84 -156 -84z" />
    <glyph glyph-name="ucircumflex" unicode="&#xfb;" horiz-adv-x="615" 
d="M96 556l100 144h219l100 -144h-140l-65 78h-8l-66 -78h-140zM246 -12c-115 0 -201 105 -201 244v252h156v-243c0 -73 39 -121 102 -121c64 0 107 51 107 123v241h156v-484h-156v72h-8c-53 -60 -100 -84 -156 -84z" />
    <glyph glyph-name="udieresis" unicode="&#xfc;" horiz-adv-x="615" 
d="M118 543v157h163v-157h-163zM331 543v157h163v-157h-163zM246 -12c-115 0 -201 105 -201 244v252h156v-243c0 -73 39 -121 102 -121c64 0 107 51 107 123v241h156v-484h-156v72h-8c-53 -60 -100 -84 -156 -84z" />
    <glyph glyph-name="v" unicode="v" horiz-adv-x="556" 
d="M186 0l-183 484h159l112 -313h8l112 313h153l-182 -484h-179z" />
    <glyph glyph-name="w" unicode="w" horiz-adv-x="789" 
d="M156 0l-153 484h152l85 -287h8l81 287h126l87 -295h8l86 295h149l-143 -484h-167l-78 254h-8l-74 -254h-159z" />
    <glyph glyph-name="x" unicode="x" horiz-adv-x="570" 
d="M4 0l181 242l-173 242h192l75 -106h9l80 106h176l-173 -232l181 -252h-191l-85 116h-8l-87 -116h-177z" />
    <glyph glyph-name="y" unicode="y" horiz-adv-x="549" 
d="M55 -190v143h79c27 0 48 12 58 36l4 7l-193 488h159l112 -315h8l111 315h153l-214 -562c-27 -73 -87 -112 -169 -112h-108z" />
    <glyph glyph-name="yacute" unicode="&#xfd;" horiz-adv-x="549" 
d="M353 556h-150l132 144h169zM55 -190v143h79c27 0 48 12 58 36l4 7l-193 488h159l112 -315h8l111 315h153l-214 -562c-27 -73 -87 -112 -169 -112h-108z" />
    <glyph glyph-name="ydieresis" unicode="&#xff;" horiz-adv-x="549" 
d="M90 543v157h163v-157h-163zM303 543v157h163v-157h-163zM55 -190v143h79c27 0 48 12 58 36l4 7l-193 488h159l112 -315h8l111 315h153l-214 -562c-27 -73 -87 -112 -169 -112h-108z" />
    <glyph glyph-name="z" unicode="z" horiz-adv-x="512" 
d="M21 0v99l251 239v8h-251v138h468v-99l-247 -239v-8h249v-138h-470z" />
    <glyph glyph-name="germandbls" unicode="&#xdf;" horiz-adv-x="548" 
d="M27 0v497c0 124 88 203 230 203h41c142 0 234 -75 234 -186c0 -61 -28 -108 -78 -137v-8c65 -27 102 -81 102 -156c0 -120 -104 -213 -246 -213h-58v136h58c53 0 91 37 91 87c0 53 -42 91 -98 91h-18v111h22c41 0 69 32 69 76c0 42 -24 63 -78 63h-41
c-49 0 -74 -23 -74 -66v-498h-156z" />
    <glyph glyph-name="dotlessi" unicode="&#x131;" horiz-adv-x="258" 
d="M51 0v484h156v-484h-156z" />
    <glyph glyph-name="circumflex" unicode="&#x2c6;" horiz-adv-x="451" 
d="M16 556l100 144h219l100 -144h-140l-65 78h-8l-66 -78h-140z" />
    <glyph glyph-name="zero" unicode="0" 
d="M295 -12c-172 0 -276 138 -276 359s103 365 276 365s276 -144 276 -365s-104 -359 -276 -359zM295 141c78 0 121 74 121 206c0 141 -40 212 -121 212s-121 -71 -121 -212c0 -132 43 -206 121 -206z" />
    <glyph glyph-name="one" unicode="1" 
d="M66 0v153h181v314l-196 -126v185l247 174h106v-547h157v-153h-495z" />
    <glyph glyph-name="two" unicode="2" horiz-adv-x="583" 
d="M37 0v140l278 222c71 56 90 82 90 122c0 51 -40 85 -100 85c-74 0 -122 -64 -128 -163l-154 19c17 173 125 287 279 287c150 0 257 -102 257 -237c0 -70 -31 -124 -105 -179l-179 -135v-8h296v-153h-534z" />
    <glyph glyph-name="three" unicode="3" 
d="M324 -12c-152 0 -267 97 -289 239l155 21c12 -73 66 -124 130 -124c58 0 108 39 108 88c0 51 -48 88 -115 88h-55v117h40c60 0 102 34 102 84c0 44 -32 75 -82 75c-55 0 -102 -41 -111 -102l-154 20c19 128 132 218 266 218c133 0 237 -87 237 -196
c0 -62 -40 -117 -98 -142v-8c80 -27 127 -81 127 -161c0 -124 -112 -217 -261 -217z" />
    <glyph glyph-name="four" unicode="4" 
d="M349 0v131h-327v139l351 430h129v-417h76v-152h-76v-131h-153zM203 283h146v187z" />
    <glyph glyph-name="five" unicode="5" 
d="M296 -12c-134 0 -234 78 -258 200l154 22c12 -52 52 -86 106 -86c66 0 111 43 111 106s-45 106 -114 106c-52 0 -89 -24 -107 -71h-138l55 435h423v-155h-303l-15 -122h8c30 28 75 43 125 43c128 0 222 -97 222 -236c0 -145 -108 -242 -269 -242z" />
    <glyph glyph-name="six" unicode="6" 
d="M302 -12c-172 0 -274 136 -274 354c0 226 113 370 286 370c130 0 217 -80 249 -203l-151 -30c-16 56 -48 80 -97 80c-80 0 -129 -62 -137 -176h8c35 53 92 83 169 83c134 0 218 -90 218 -233c0 -151 -102 -245 -271 -245zM305 123c71 0 118 45 118 111
c0 65 -47 110 -118 110c-70 0 -118 -45 -118 -110c0 -66 48 -111 118 -111z" />
    <glyph glyph-name="seven" unicode="7" 
d="M123 0l261 540v8h-330v152h520v-122l-274 -578h-177z" />
    <glyph glyph-name="eight" unicode="8" 
d="M300 -12c-154 0 -262 88 -262 214c0 72 44 131 116 163v8c-58 27 -94 79 -94 146c0 114 98 193 240 193s240 -79 240 -193c0 -66 -36 -119 -94 -146v-8c72 -32 116 -91 116 -163c0 -126 -108 -214 -262 -214zM300 428c50 0 86 31 86 75s-36 76 -86 76s-86 -32 -86 -76
s36 -75 86 -75zM300 125c64 0 109 38 109 94s-45 94 -109 94s-109 -38 -109 -94s45 -94 109 -94z" />
    <glyph glyph-name="nine" unicode="9" 
d="M303 -12c-131 0 -223 80 -255 203l145 27c16 -56 65 -77 114 -77c80 0 129 62 132 176h-8c-36 -53 -90 -83 -161 -83c-134 0 -227 90 -227 233c0 151 102 245 272 245c171 0 274 -136 274 -353c0 -227 -114 -371 -286 -371zM311 356c71 0 118 45 118 110
c0 66 -47 111 -118 111c-70 0 -118 -45 -118 -111c0 -65 48 -110 118 -110z" />
    <glyph glyph-name="hyphen" unicode="-" horiz-adv-x="377" 
d="M53 181v145h270v-145h-270z" />
    <glyph glyph-name="parenleft" unicode="(" horiz-adv-x="350" 
d="M153 -190c-78 144 -116 295 -116 445c0 151 39 301 116 445h149c-77 -144 -116 -294 -116 -445c0 -150 38 -301 116 -445h-149z" />
    <glyph glyph-name="bracketleft" unicode="[" horiz-adv-x="369" 
d="M44 -190v890h296v-154h-148v-582h148v-154h-296z" />
    <glyph glyph-name="braceleft" unicode="{" horiz-adv-x="450" 
d="M408 -190h-62c-129 0 -209 71 -209 187v67c0 94 -19 122 -111 150v84c92 27 111 55 111 149v66c0 116 80 187 209 187h62v-154h-42c-54 0 -81 -25 -81 -81v-78c0 -69 -21 -107 -77 -128v-7c56 -21 77 -60 77 -127v-80c0 -56 27 -81 81 -81h42v-154z" />
    <glyph glyph-name="parenright" unicode=")" horiz-adv-x="350" 
d="M48 -190c78 144 116 295 116 445c0 151 -39 301 -116 445h149c77 -144 116 -294 116 -445c0 -150 -38 -301 -116 -445h-149z" />
    <glyph glyph-name="bracketright" unicode="]" horiz-adv-x="375" 
d="M30 -190v154h147v582h-147v154h296v-890h-296z" />
    <glyph glyph-name="braceright" unicode="}" horiz-adv-x="450" 
d="M30 -190v154h42c54 0 80 25 80 81v80c0 67 22 106 78 127v7c-56 21 -78 59 -78 128v78c0 56 -26 81 -80 81h-42v154h62c129 0 209 -71 209 -187v-66c0 -94 19 -122 111 -149v-84c-92 -28 -111 -56 -111 -150v-67c0 -116 -80 -187 -209 -187h-62z" />
    <glyph glyph-name="quoteleft" unicode="&#x2018;" horiz-adv-x="285" 
d="M50 377v167l59 156h95l-54 -139h84v-184h-184z" />
    <glyph glyph-name="quoteright" unicode="&#x2019;" horiz-adv-x="285" 
d="M80 377l55 138h-85v185h184v-169l-59 -154h-95z" />
    <glyph glyph-name="exclam" unicode="!" horiz-adv-x="278" 
d="M68 261v439h143v-439h-143zM47 0v185h185v-185h-185z" />
    <glyph glyph-name="quotedbl" unicode="&#x22;" horiz-adv-x="407" 
d="M79 496l-23 100v104h134v-104l-23 -100h-88zM241 496l-23 100v104h133v-104l-23 -100h-87z" />
    <glyph glyph-name="numbersign" unicode="#" horiz-adv-x="758" 
d="M103 0l36 164h-99v154h131l15 69h-106v154h138l34 159h159l-34 -159h89l35 159h159l-35 -159h100v-154h-132l-15 -69h107v-154h-139l-35 -164h-159l35 164h-89l-36 -164h-159zM330 318h89l15 69h-89z" />
    <glyph glyph-name="ampersand" unicode="&#x26;" horiz-adv-x="678" 
d="M278 -12c-145 0 -267 74 -267 202c0 75 47 127 111 161l21 11l-28 27c-35 35 -53 80 -53 131c0 116 96 192 225 192c118 0 218 -63 218 -179c0 -82 -51 -133 -137 -187l93 -91c15 33 23 71 23 112v44h149v-44c0 -82 -20 -155 -56 -215l72 -66l-106 -108l-68 66
c-54 -36 -120 -56 -197 -56zM273 431c50 28 78 48 78 84s-29 55 -68 55c-37 0 -62 -25 -62 -59c0 -25 10 -40 30 -59zM164 194c0 -50 60 -68 114 -68c34 0 63 7 89 20l-130 126l-16 -10c-33 -20 -57 -40 -57 -68z" />
    <glyph glyph-name="quotesingle" unicode="'" horiz-adv-x="246" 
d="M79 496l-23 100v104h134v-104l-23 -100h-88z" />
    <glyph glyph-name="asterisk" unicode="*" horiz-adv-x="429" 
d="M369 409l-98 -70l-57 77l-56 -77l-99 70l57 78l-92 30l38 116l91 -30v97h122v-96l92 30l38 -117l-92 -30z" />
    <glyph glyph-name="comma" unicode="," horiz-adv-x="278" 
d="M77 -139l55 139h-85v185h185v-168l-60 -156h-95z" />
    <glyph glyph-name="period" unicode="." horiz-adv-x="278" 
d="M47 0v185h185v-185h-185z" />
    <glyph glyph-name="slash" unicode="/" horiz-adv-x="443" 
d="M24 0l252 700h155l-252 -700h-155z" />
    <glyph glyph-name="colon" unicode=":" horiz-adv-x="278" 
d="M47 287v185h185v-185h-185zM47 0v185h185v-185h-185z" />
    <glyph glyph-name="semicolon" unicode=";" horiz-adv-x="278" 
d="M47 275v185h185v-185h-185zM77 -139l55 139h-85v185h185v-168l-60 -156h-95z" />
    <glyph glyph-name="question" unicode="?" horiz-adv-x="529" 
d="M160 243v10c0 92 60 135 113 167c48 30 92 52 92 97c0 49 -49 73 -97 73c-51 0 -100 -27 -100 -75h-147c0 114 104 197 248 197c143 0 246 -82 246 -195c0 -82 -51 -123 -107 -155c-48 -30 -97 -54 -97 -111v-8h-151zM139 0v185h185v-185h-185z" />
    <glyph glyph-name="at" unicode="@" horiz-adv-x="896" 
d="M680 -80c-66 -45 -146 -72 -232 -72c-225 0 -408 182 -408 406s183 406 408 406s408 -182 408 -405c0 -180 -72 -290 -191 -290c-5 0 -11 0 -16 1zM400 44c-101 0 -184 93 -184 209c0 115 83 209 184 209c50 0 94 -21 122 -54h8v44h118v-349c0 -27 11 -43 33 -43
c46 0 90 91 90 194c0 178 -145 322 -323 322s-323 -144 -323 -322s145 -322 323 -322c59 0 116 17 164 45c-47 22 -83 70 -83 121h-7c-27 -33 -72 -54 -122 -54zM439 154c53 0 93 42 93 99c0 56 -40 99 -93 99c-54 0 -93 -43 -93 -99c0 -57 39 -99 93 -99z" />
    <glyph glyph-name="backslash" unicode="\" horiz-adv-x="443" 
d="M264 0l-252 700h155l252 -700h-155z" />
    <glyph glyph-name="plus" unicode="+" 
d="M217 48v159h-156v150h156v159h156v-159h156v-150h-156v-159h-156z" />
    <glyph glyph-name="equal" unicode="=" 
d="M61 317v149h468v-149h-468zM61 100v149h468v-149h-468z" />
    <glyph glyph-name="bar" unicode="|" horiz-adv-x="272" 
d="M60 -190v890h152v-890h-152z" />
    <glyph glyph-name="multiply" unicode="&#xd7;" 
d="M160 23l-106 107l133 132l-135 135l111 110l134 -135l133 133l106 -106l-133 -132l135 -135l-111 -111l-134 136z" />
    <glyph glyph-name="divide" unicode="&#xf7;" 
d="M295 388c-40 0 -72 32 -72 72s32 72 72 72s72 -32 72 -72s-32 -72 -72 -72zM58 207v150h469v-150h-469zM295 32c-40 0 -72 32 -72 72s32 72 72 72s72 -32 72 -72s-32 -72 -72 -72z" />
    <glyph glyph-name="minus" unicode="&#x2212;" horiz-adv-x="591" 
d="M66 207v150h459v-150h-459z" />
    <glyph glyph-name="grave" unicode="`" horiz-adv-x="510" 
d="M233 556l-151 144h169l132 -144h-150z" />
    <glyph glyph-name="dieresis" unicode="&#xa8;" horiz-adv-x="472" 
d="M48 543v157h163v-157h-163zM261 543v157h163v-157h-163z" />
    <glyph glyph-name="acute" unicode="&#xb4;" horiz-adv-x="510" 
d="M331 556h-150l132 144h169z" />
    <glyph glyph-name="ring" unicode="&#x2da;" horiz-adv-x="500" 
d="M262 518c-57 0 -102 43 -102 97s45 97 102 97s102 -43 102 -97s-45 -97 -102 -97zM262 585c18 0 31 13 31 30c0 16 -13 30 -31 30s-31 -14 -31 -30c0 -17 13 -30 31 -30z" />
    <glyph glyph-name="tilde" unicode="&#x2dc;" horiz-adv-x="537" 
d="M76 547c1 95 59 155 140 155c26 0 47 -7 65 -17l21 -11c15 -9 29 -16 45 -16c20 0 31 10 37 33h106c-1 -92 -56 -147 -127 -147c-36 0 -60 9 -80 18l-19 12c-14 7 -25 13 -38 13c-22 0 -36 -17 -38 -40h-112z" />
    <glyph glyph-name="copyright" unicode="&#xa9;" horiz-adv-x="776" 
d="M388 -12c-208 0 -376 168 -376 374s168 374 376 374s376 -168 376 -374s-168 -374 -376 -374zM388 72c160 0 291 130 291 290s-131 290 -291 290s-291 -130 -291 -290s131 -290 291 -290zM389 144c-128 0 -217 91 -217 218s89 218 217 218c111 0 194 -66 212 -170
l-133 -21c-9 49 -36 74 -79 74c-51 0 -82 -41 -82 -101c0 -61 31 -100 82 -100c42 0 70 24 80 68l132 -22c-20 -99 -102 -164 -212 -164z" />
    <glyph glyph-name="guillemotleft" unicode="&#xab;" horiz-adv-x="624" 
d="M159 50l-131 193l135 193h183l-135 -193l131 -193h-183zM405 50l-131 193l135 193h183l-135 -193l131 -193h-183z" />
    <glyph glyph-name="guillemotright" unicode="&#xbb;" horiz-adv-x="627" 
d="M36 50l131 193l-135 193h183l135 -193l-131 -193h-183zM282 50l131 193l-135 193h183l135 -193l-131 -193h-183z" />
    <glyph glyph-name="quotedblright" unicode="&#x201d;" horiz-adv-x="486" 
d="M80 377l55 138h-85v185h184v-169l-59 -154h-95zM281 377l55 138h-86v185h185v-169l-59 -154h-95z" />
    <glyph glyph-name="endash" unicode="&#x2013;" horiz-adv-x="561" 
d="M26 184v142h509v-142h-509z" />
    <glyph glyph-name="quotedblleft" unicode="&#x201c;" horiz-adv-x="486" 
d="M50 377v167l59 156h95l-54 -139h84v-184h-184zM250 377v167l60 156h95l-54 -139h84v-184h-185z" />
    <glyph glyph-name="quotedblbase" unicode="&#x201e;" horiz-adv-x="486" 
d="M80 -139l55 139h-85v185h184v-168l-59 -156h-95zM281 -139l55 139h-86v185h185v-168l-59 -156h-95z" />
    <glyph glyph-name="emdash" unicode="&#x2014;" horiz-adv-x="793" 
d="M19 184v142h755v-142h-755z" />
    <glyph glyph-name="zero.lf" horiz-adv-x="604" 
d="M302 -12c-172 0 -276 138 -276 359s103 365 276 365s276 -144 276 -365s-104 -359 -276 -359zM302 141c78 0 121 74 121 206c0 141 -40 212 -121 212s-121 -71 -121 -212c0 -132 43 -206 121 -206z" />
    <glyph glyph-name="one.lf" horiz-adv-x="445" 
d="M224 0v467l-196 -126v185l247 174h106v-700h-157z" />
    <glyph glyph-name="two.lf" horiz-adv-x="594" 
d="M37 0v140l278 222c71 56 90 82 90 122c0 51 -40 85 -100 85c-74 0 -122 -64 -128 -163l-154 19c17 173 125 287 279 287c150 0 257 -102 257 -237c0 -70 -31 -124 -105 -179l-179 -135v-8h296v-153h-534z" />
    <glyph glyph-name="three.lf" horiz-adv-x="598" 
d="M313 -12c-152 0 -267 97 -289 239l155 21c12 -73 66 -124 130 -124c58 0 108 39 108 88c0 51 -48 88 -115 88h-55v117h40c60 0 102 34 102 84c0 44 -32 75 -82 75c-55 0 -102 -41 -111 -102l-154 20c19 128 132 218 266 218c133 0 237 -87 237 -196
c0 -62 -40 -117 -98 -142v-8c80 -27 127 -81 127 -161c0 -124 -112 -217 -261 -217z" />
    <glyph glyph-name="four.lf" horiz-adv-x="601" 
d="M347 0v131h-327v139l351 430h129v-417h76v-152h-76v-131h-153zM201 283h146v187z" />
    <glyph glyph-name="five.lf" horiz-adv-x="591" 
d="M290 -12c-134 0 -234 78 -258 200l154 22c12 -52 52 -86 106 -86c66 0 111 43 111 106s-45 106 -114 106c-52 0 -89 -24 -107 -71h-138l55 435h423v-155h-303l-15 -122h8c30 28 75 43 125 43c128 0 222 -97 222 -236c0 -145 -108 -242 -269 -242z" />
    <glyph glyph-name="six.lf" horiz-adv-x="597" 
d="M300 -12c-172 0 -274 136 -274 354c0 226 113 370 286 370c130 0 217 -80 249 -203l-151 -30c-16 56 -48 80 -97 80c-80 0 -129 -62 -137 -176h8c35 53 92 83 169 83c134 0 218 -90 218 -233c0 -151 -102 -245 -271 -245zM303 123c71 0 118 45 118 111
c0 65 -47 110 -118 110c-70 0 -118 -45 -118 -110c0 -66 48 -111 118 -111z" />
    <glyph glyph-name="seven.lf" horiz-adv-x="574" 
d="M100 0l261 540v8h-330v152h520v-122l-274 -578h-177z" />
    <glyph glyph-name="eight.lf" horiz-adv-x="593" 
d="M296 -12c-154 0 -262 88 -262 214c0 72 44 131 116 163v8c-58 27 -94 79 -94 146c0 114 98 193 240 193s240 -79 240 -193c0 -66 -36 -119 -94 -146v-8c72 -32 116 -91 116 -163c0 -126 -108 -214 -262 -214zM296 428c50 0 86 31 86 75s-36 76 -86 76s-86 -32 -86 -76
s36 -75 86 -75zM296 125c64 0 109 38 109 94s-45 94 -109 94s-109 -38 -109 -94s45 -94 109 -94z" />
    <glyph glyph-name="nine.lf" horiz-adv-x="597" 
d="M294 -12c-131 0 -223 80 -255 203l145 27c16 -56 65 -77 114 -77c80 0 129 62 132 176h-8c-36 -53 -90 -83 -161 -83c-134 0 -227 90 -227 233c0 151 102 245 272 245c171 0 274 -136 274 -353c0 -227 -114 -371 -286 -371zM302 356c71 0 118 45 118 110
c0 66 -47 111 -118 111c-70 0 -118 -45 -118 -111c0 -65 48 -110 118 -110z" />
    <glyph glyph-name="arrowleft" unicode="&#x2190;" horiz-adv-x="572" 
d="M296 -42l-284 284l284 284l67 -68l-161 -162h358v-107h-356l161 -161z" />
    <glyph glyph-name="arrowright" unicode="&#x2192;" horiz-adv-x="572" 
d="M276 -42l-67 68l161 162h-358v107h356l-161 161l69 70l284 -284z" />
    <glyph glyph-name="arrowdown" unicode="&#x2193;" 
d="M294 -32l-282 282l70 70l160 -160v356h106v-357l162 161l68 -68z" />
    <glyph glyph-name="arrowup" unicode="&#x2191;" 
d="M242 -32v357l-162 -161l-68 68l284 284l282 -282l-70 -70l-160 160v-356h-106z" />
    <glyph glyph-name="uni2196" unicode="&#x2196;" horiz-adv-x="564" 
d="M464 -17l-331 331v-230h-97v400h400v-96h-225l329 -329z" />
    <glyph glyph-name="uni2197" unicode="&#x2197;" horiz-adv-x="564" 
d="M99 -17l-75 76l329 329h-225v96h400v-400h-98v230z" />
    <glyph glyph-name="uni2198" unicode="&#x2198;" horiz-adv-x="564" 
d="M128 0v96h225l-329 329l75 76l331 -331v230h98v-400h-400z" />
    <glyph glyph-name="uni2199" unicode="&#x2199;" horiz-adv-x="564" 
d="M36 0v400h97v-230l331 331l76 -76l-329 -329h225v-96h-400z" />
    <glyph glyph-name="uni25A0" unicode="&#x25a0;" horiz-adv-x="700" 
d="M0 0v700h700v-700h-700z" />
    <glyph glyph-name="uni25A1" unicode="&#x25a1;" horiz-adv-x="700" 
d="M0 0v700h700v-700h-700zM130 130h440v440h-440v-440z" />
    <glyph glyph-name="uni25B6" unicode="&#x25b6;" horiz-adv-x="436" 
d="M0 0v484l436 -242z" />
    <glyph glyph-name="uni25B7" unicode="&#x25b7;" horiz-adv-x="436" 
d="M0 0v484l436 -242zM130 195l86 48l-86 48v-96z" />
    <glyph glyph-name="uni25C1" unicode="&#x25c1;" horiz-adv-x="436" 
d="M436 0l-436 242l436 242v-484zM306 195v96l-86 -48z" />
    <glyph glyph-name="uni25C0" unicode="&#x25c0;" horiz-adv-x="436" 
d="M436 0l-436 242l436 242v-484z" />
    <glyph glyph-name="uni25CB" unicode="&#x25cb;" horiz-adv-x="508" 
d="M254 -12c-140 0 -254 114 -254 254s114 254 254 254s254 -114 254 -254s-114 -254 -254 -254zM254 118c68 0 122 55 122 124s-54 124 -122 124s-122 -55 -122 -124s54 -124 122 -124z" />
    <glyph glyph-name="uni25CF" unicode="&#x25cf;" horiz-adv-x="508" 
d="M254 -12c-140 0 -254 114 -254 254s114 254 254 254s254 -114 254 -254s-114 -254 -254 -254z" />
    <glyph glyph-name="uni25AA" unicode="&#x25aa;" horiz-adv-x="484" 
d="M0 0v484h484v-484h-484z" />
    <glyph glyph-name="uni25AB" unicode="&#x25ab;" horiz-adv-x="484" 
d="M0 0v484h484v-484h-484zM130 130h224v224h-224v-224z" />
    <glyph glyph-name="uni2605" unicode="&#x2605;" horiz-adv-x="508" 
d="M90 1l-3 2l71 195l-158 110l1 2h194l57 174h4l56 -174h195l1 -2l-159 -110l72 -195l-3 -2l-164 126z" />
    <glyph glyph-name="arrowuprighttip" unicode="&#x21b1;" horiz-adv-x="572" 
d="M12 -32v357h358l-161 162l67 67l284 -284l-284 -283l-69 69l161 162h-248v-250h-108z" />
    <glyph glyph-name="arrowleftdowntip" unicode="&#x21b2;" horiz-adv-x="572" 
d="M296 497l69 -69l-161 -162h248v250h108v-357h-358l161 -162l-67 -67l-284 284z" />
    <glyph glyph-name="arrowleftdowncorner" unicode="&#x21b5;" horiz-adv-x="610" 
d="M296 -32l-284 284l68 68l162 -161v357h356v-108h-250v-248l160 160l70 -70z" />
    <glyph glyph-name="arrowrightdowncorner" unicode="&#x21b4;" horiz-adv-x="606" 
d="M310 -32l-282 282l69 70l160 -160v248h-250v108h357v-357l161 161l69 -68z" />
    <glyph glyph-name="arrowrightdowntip" unicode="&#x21b3;" horiz-adv-x="572" 
d="M12 159v357h108v-250h248l-161 162l69 69l284 -283l-284 -284l-67 67l161 162h-358z" />
    <glyph glyph-name="arrowleftuptip" unicode="&#x21b0;" horiz-adv-x="572" 
d="M296 -13l-284 283l284 284l67 -67l-161 -162h358v-357h-108v250h-248l161 -162z" />
    <glyph glyph-name="arrowclockwiseopencircle" unicode="&#x21bb;" horiz-adv-x="732" 
d="M413 -32c-173 0 -303 132 -303 308c0 87 31 164 85 218l62 62h-229v96h400v-400h-98v236l-65 -64c-36 -37 -56 -89 -56 -148c0 -120 87 -210 204 -210c116 0 203 90 203 210c0 59 -20 110 -55 149l69 69c54 -55 86 -131 86 -218c0 -176 -130 -308 -303 -308z" />
    <glyph glyph-name="arrowanticlockwiseopencircle" unicode="&#x21ba;" horiz-adv-x="732" 
d="M335 -32c-173 0 -303 132 -303 308c0 87 32 163 85 218l70 -69c-34 -39 -55 -90 -55 -149c0 -120 87 -210 203 -210s203 90 203 210c0 59 -20 111 -56 148l-64 64v-236h-98v400h400v-96h-229l62 -62c54 -54 85 -131 85 -218c0 -176 -130 -308 -303 -308z" />
    <glyph glyph-name="heartblack" unicode="&#x2665;" horiz-adv-x="532" 
d="M266 -12l-216 233c-43 47 -52 94 -52 123c0 86 73 152 149 152c51 0 95 -30 119 -73c24 43 68 73 119 73c76 0 150 -66 150 -150c0 -31 -10 -78 -53 -125z" />
    <glyph glyph-name="a.sups" horiz-adv-x="405" 
d="M158 476c-80 0 -147 76 -147 168s67 168 147 168c39 0 74 -16 96 -42h5v34h114v-320h-114v34h-5c-22 -26 -57 -42 -96 -42zM194 572c38 0 68 31 68 72s-30 72 -68 72c-39 0 -69 -31 -69 -72s30 -72 69 -72z" />
    <glyph glyph-name="b.sups" horiz-adv-x="405" 
d="M32 484v463h113v-177h6c22 26 57 42 96 42c80 0 147 -76 147 -168s-67 -168 -147 -168c-39 0 -74 16 -96 42h-6v-34h-113zM212 572c38 0 68 31 68 72s-30 72 -68 72c-39 0 -69 -31 -69 -72s30 -72 69 -72z" />
    <glyph glyph-name="c.sups" horiz-adv-x="370" 
d="M187 476c-101 0 -171 70 -171 168s70 168 171 168c90 0 157 -56 167 -141l-112 -14c-4 37 -24 56 -55 56c-36 0 -57 -26 -57 -69s21 -69 57 -69c29 0 50 17 55 48l112 -15c-14 -81 -79 -132 -167 -132z" />
    <glyph glyph-name="d.sups" horiz-adv-x="405" 
d="M158 476c-80 0 -147 76 -147 168s67 168 147 168c39 0 74 -16 96 -42h5v177h114v-463h-114v34h-5c-22 -26 -57 -42 -96 -42zM194 572c38 0 68 31 68 72s-30 72 -68 72c-39 0 -69 -31 -69 -72s30 -72 69 -72z" />
    <glyph glyph-name="e.sups" horiz-adv-x="367" 
d="M180 476c-99 0 -167 70 -167 168s68 168 168 168c103 0 172 -70 172 -168v-29h-229c9 -29 30 -48 56 -48c28 0 48 15 58 41l102 -28c-24 -62 -85 -104 -160 -104zM185 729c-29 0 -50 -18 -59 -47h118c-10 29 -31 47 -59 47z" />
    <glyph glyph-name="f.sups" horiz-adv-x="260" 
d="M49 484v212h-43v108h43v10c0 78 53 133 132 133h72v-108h-54c-26 0 -36 -10 -36 -31v-4h89v-108h-89v-212h-114z" />
    <glyph glyph-name="g.sups" horiz-adv-x="400" 
d="M200 350c-95 0 -161 49 -171 127l77 10c-55 25 -95 86 -95 157c0 92 67 168 147 168c39 0 74 -16 96 -42h5v34h114v-286c0 -98 -72 -168 -173 -168zM194 572c38 0 68 31 68 72s-30 72 -68 72c-39 0 -69 -31 -69 -72s30 -72 69 -72zM158 476c-4 0 -8 0 -13 1
c10 -25 28 -39 55 -39c35 0 59 28 59 69v11h-5c-22 -26 -57 -42 -96 -42z" />
    <glyph glyph-name="h.sups" horiz-adv-x="418" 
d="M32 484v463h114v-191h5c35 40 65 56 108 56c78 0 130 -57 130 -145v-183h-114v159c0 49 -18 73 -57 73c-41 0 -72 -29 -72 -70v-162h-114z" />
    <glyph glyph-name="i.sups" horiz-adv-x="178" 
d="M19 827v120h140v-120h-140zM32 484v320h114v-320h-114z" />
    <glyph glyph-name="j.sups" horiz-adv-x="188" 
d="M24 827v120h140v-120h-140zM37 358v446h114v-446h-114z" />
    <glyph glyph-name="k.sups" horiz-adv-x="384" 
d="M32 484v463h114v-233h6l82 90h137l-117 -125l128 -195h-129l-73 117l-34 -37v-80h-114z" />
    <glyph glyph-name="l.sups" horiz-adv-x="178" 
d="M32 484v463h114v-463h-114z" />
    <glyph glyph-name="m.sups" horiz-adv-x="599" 
d="M32 484v320h114v-48h5c20 38 52 56 97 56c48 0 80 -21 98 -63h5c21 38 58 63 98 63c82 0 121 -47 121 -146v-182h-114v159c0 52 -12 73 -44 73c-34 0 -54 -26 -54 -70v-162h-114v159c0 52 -12 73 -44 73c-34 0 -54 -26 -54 -70v-162h-114z" />
    <glyph glyph-name="n.sups" horiz-adv-x="418" 
d="M32 484v320h114v-48h5c35 40 65 56 108 56c78 0 130 -57 130 -145v-183h-114v159c0 49 -18 73 -57 73c-41 0 -72 -29 -72 -70v-162h-114z" />
    <glyph glyph-name="o.sups" horiz-adv-x="372" 
d="M187 476c-102 0 -174 70 -174 168s72 168 174 168c100 0 172 -70 172 -168s-72 -168 -172 -168zM187 575c35 0 59 28 59 69s-24 69 -59 69c-36 0 -60 -28 -60 -69s24 -69 60 -69z" />
    <glyph glyph-name="p.sups" horiz-adv-x="405" 
d="M32 358v446h113v-34h6c22 26 57 42 96 42c80 0 147 -76 147 -168s-67 -168 -147 -168c-39 0 -74 16 -96 42h-6v-160h-113zM212 572c38 0 68 31 68 72s-30 72 -68 72c-39 0 -69 -31 -69 -72s30 -72 69 -72z" />
    <glyph glyph-name="q.sups" horiz-adv-x="405" 
d="M158 476c-80 0 -147 76 -147 168s67 168 147 168c39 0 74 -16 96 -42h5v34h114v-446h-114v160h-5c-22 -26 -57 -42 -96 -42zM194 572c38 0 68 31 68 72s-30 72 -68 72c-39 0 -69 -31 -69 -72s30 -72 69 -72z" />
    <glyph glyph-name="r.sups" horiz-adv-x="291" 
d="M32 484v320h114v-68h5c19 43 60 68 108 68h24v-107h-51c-52 0 -86 -36 -86 -89v-124h-114z" />
    <glyph glyph-name="s.sups" horiz-adv-x="373" 
d="M199 476c-105 0 -171 42 -184 123l85 12c-53 15 -81 45 -81 88c0 66 65 113 163 113c94 0 156 -45 176 -131l-84 -11c60 -15 86 -42 86 -83c0 -68 -63 -111 -161 -111zM234 678c4 -1 8 -1 11 -2c-8 30 -35 51 -68 51c-21 0 -39 -10 -39 -22c0 -10 11 -15 37 -19zM141 602
c-5 1 -9 1 -14 2c9 -27 37 -43 74 -43c23 0 38 6 38 15c0 8 -12 14 -38 17z" />
    <glyph glyph-name="t.sups" horiz-adv-x="264" 
d="M251 484h-88c-67 0 -114 47 -114 112v100h-44v108h44v80h114v-80h88v-108h-88v-72c0 -21 13 -32 37 -32h51v-108z" />
    <glyph glyph-name="u.sups" horiz-adv-x="418" 
d="M165 476c-78 0 -136 70 -136 163v165h114v-157c0 -45 24 -75 64 -75s65 30 65 75v157h114v-320h-114v48h-5c-36 -41 -65 -56 -102 -56z" />
    <glyph glyph-name="v.sups" horiz-adv-x="376" 
d="M122 484l-119 320h115l68 -195h5l66 195h112l-118 -320h-129z" />
    <glyph glyph-name="w.sups" horiz-adv-x="531" 
d="M101 484l-98 320h109l51 -180h5l51 180h90l54 -185h5l51 185h110l-93 -320h-122l-46 152h-6l-44 -152h-117z" />
    <glyph glyph-name="x.sups" horiz-adv-x="389" 
d="M3 484l117 160l-113 160h140l42 -60h6l45 60h128l-112 -153l119 -167h-140l-48 67h-6l-50 -67h-128z" />
    <glyph glyph-name="y.sups" horiz-adv-x="371" 
d="M38 358v106h58c14 0 25 5 30 18l2 2l-125 320h115l68 -196h5l66 196h112l-139 -372c-17 -47 -57 -74 -109 -74h-83z" />
    <glyph glyph-name="z.sups" horiz-adv-x="343" 
d="M14 484v73l157 141v5h-158v101h317v-73l-156 -141v-5h156v-101h-316z" />
    <glyph glyph-name="period.sups" horiz-adv-x="189" 
d="M29 484v130h131v-130h-131z" />
    <glyph glyph-name="comma.sups" horiz-adv-x="189" 
d="M52 390l37 94h-60v130h131v-118l-41 -106h-67z" />
    <glyph glyph-name="zero.sups" horiz-adv-x="399" 
d="M200 476c-114 0 -184 91 -184 237c0 147 69 242 184 242c114 0 183 -95 183 -242c0 -146 -70 -237 -183 -237zM200 588c46 0 70 45 70 125c0 88 -23 130 -70 130c-48 0 -70 -42 -70 -130c0 -80 24 -125 70 -125z" />
    <glyph glyph-name="one.sups" horiz-adv-x="390" 
d="M45 484v111h112v181l-125 -84v138l161 117h78v-352h101v-111h-327z" />
    <glyph glyph-name="two.sups" horiz-adv-x="398" 
d="M26 484v101l181 144c45 35 56 48 56 72c0 29 -24 50 -59 50c-44 0 -73 -41 -77 -104l-113 15c12 114 86 193 187 193s175 -71 175 -159c0 -46 -19 -80 -67 -114l-110 -81v-6h186v-111h-359z" />
    <glyph glyph-name="three.sups" horiz-adv-x="400" 
d="M209 476c-101 0 -179 64 -193 157l113 15c7 -42 40 -74 77 -74c34 0 63 23 63 51c0 31 -29 54 -68 54h-38v83h26c37 0 62 20 62 50c0 26 -18 44 -46 44c-32 0 -62 -26 -66 -62l-112 14c11 85 88 147 178 147c88 0 160 -59 160 -132c0 -39 -26 -76 -64 -92v-6
c54 -16 83 -52 83 -104c0 -83 -75 -145 -175 -145z" />
    <glyph glyph-name="four.sups" horiz-adv-x="396" 
d="M226 484v81h-213v105l232 277h92v-271h45v-111h-45v-81h-111zM143 676h83v101z" />
    <glyph glyph-name="five.sups" horiz-adv-x="397" 
d="M195 476c-91 0 -159 53 -174 133l113 15c5 -30 30 -50 61 -50c39 0 66 25 66 62s-27 62 -67 62c-31 0 -54 -16 -64 -44h-101l37 293h285v-113h-197l-8 -67h5c20 16 46 24 77 24c85 0 148 -64 148 -155c0 -96 -73 -160 -181 -160z" />
    <glyph glyph-name="six.sups" horiz-adv-x="399" 
d="M199 476c-114 0 -183 91 -183 234c0 150 77 245 191 245c89 0 147 -54 167 -135l-110 -23c-9 33 -27 46 -55 46c-48 0 -77 -35 -83 -101h5c23 32 60 49 110 49c89 0 142 -57 142 -152c0 -101 -68 -163 -184 -163zM202 573c42 0 72 27 72 66c0 38 -30 66 -72 66
c-43 0 -71 -28 -71 -66c0 -39 28 -66 71 -66z" />
    <glyph glyph-name="seven.sups" horiz-adv-x="388" 
d="M64 484l168 346v6h-209v111h348v-90l-179 -373h-128z" />
    <glyph glyph-name="eight.sups" horiz-adv-x="398" 
d="M199 476c-104 0 -176 59 -176 144c0 45 28 83 76 105v6c-39 17 -62 51 -62 93c0 77 67 131 162 131s161 -54 161 -131c0 -42 -22 -76 -61 -93v-6c47 -22 75 -60 75 -105c0 -85 -71 -144 -175 -144zM199 769c29 0 49 19 49 45s-20 44 -49 44s-50 -18 -50 -44
s21 -45 50 -45zM199 575c38 0 64 23 64 56c0 34 -26 57 -64 57s-65 -23 -65 -57c0 -33 27 -56 65 -56z" />
    <glyph glyph-name="nine.sups" horiz-adv-x="399" 
d="M198 476c-89 0 -151 54 -171 135l105 20c9 -33 41 -43 69 -43c48 0 77 35 79 101h-5c-24 -33 -58 -49 -102 -49c-90 0 -150 57 -150 152c0 101 68 163 183 163s184 -91 184 -234c0 -150 -78 -245 -192 -245zM204 726c42 0 71 27 71 66c0 38 -29 65 -71 65
c-43 0 -72 -27 -72 -65c0 -39 29 -66 72 -66z" />
    <glyph glyph-name="A.sups" horiz-adv-x="491" 
d="M3 484l177 463h125l183 -463h-129l-26 72h-175l-26 -72h-129zM240 794l-42 -122h92l-45 122h-5z" />
    <glyph glyph-name="B.sups" horiz-adv-x="452" 
d="M32 484v463h223c92 0 161 -57 161 -131c0 -42 -22 -77 -57 -96v-5c45 -22 71 -62 71 -107c0 -74 -63 -124 -159 -124h-239zM152 766h105c23 0 38 13 38 33s-17 33 -43 33h-100v-66zM152 598h107c31 0 50 12 50 33c0 20 -17 33 -45 33h-112v-66z" />
    <glyph glyph-name="C.sups" horiz-adv-x="489" 
d="M243 476c-130 0 -227 103 -227 240c0 135 97 238 232 238c112 0 196 -69 224 -183l-118 -24c-14 64 -49 93 -105 93c-70 0 -112 -51 -112 -124c0 -74 42 -126 106 -126c54 0 93 31 111 88l116 -34c-33 -102 -118 -168 -227 -168z" />
    <glyph glyph-name="D.sups" horiz-adv-x="474" 
d="M32 484v463h187c141 0 239 -96 239 -232c0 -135 -98 -231 -239 -231h-187zM152 600h67c73 0 117 42 117 115c0 74 -44 116 -117 116h-67v-231z" />
    <glyph glyph-name="E.sups" horiz-adv-x="412" 
d="M32 484v463h349v-116h-229v-56h197v-115h-197v-60h229v-116h-349z" />
    <glyph glyph-name="F.sups" horiz-adv-x="399" 
d="M32 484v463h349v-116h-229v-64h197v-115h-197v-168h-120z" />
    <glyph glyph-name="G.sups" horiz-adv-x="506" 
d="M234 476c-113 0 -218 109 -218 240c0 138 96 240 232 240c103 0 183 -66 218 -165l-92 -29h100v-278h-109v41h-5c-34 -31 -80 -49 -126 -49zM138 716c0 -74 50 -126 121 -126c49 0 86 18 106 55h-119v117h104c-18 51 -53 80 -102 80c-66 0 -110 -53 -110 -126z" />
    <glyph glyph-name="H.sups" horiz-adv-x="509" 
d="M32 484v463h120v-179h205v179h120v-463h-120v168h-205v-168h-120z" />
    <glyph glyph-name="I.sups" horiz-adv-x="184" 
d="M32 484v463h120v-463h-120z" />
    <glyph glyph-name="J.sups" horiz-adv-x="286" 
d="M16 484v120h38c62 0 91 31 91 98v245h120v-245c0 -132 -84 -218 -211 -218h-38z" />
    <glyph glyph-name="K.sups" horiz-adv-x="480" 
d="M32 484v463h120v-177h6l144 177h146l-165 -200l189 -263h-145l-121 171l-54 -65v-106h-120z" />
    <glyph glyph-name="L.sups" horiz-adv-x="384" 
d="M32 484v463h120v-347h226v-116h-346z" />
    <glyph glyph-name="M.sups" horiz-adv-x="609" 
d="M32 484v463h163l112 -260h5l115 260h151v-463h-121l3 248h-5l-108 -248h-85l-107 250h-5l2 -250h-120z" />
    <glyph glyph-name="N.sups" horiz-adv-x="488" 
d="M32 484v463h112l189 -246h5l-3 246h121v-463h-100l-201 254h-5l2 -254h-120z" />
    <glyph glyph-name="O.sups" horiz-adv-x="509" 
d="M255 476c-140 0 -239 103 -239 240c0 135 99 238 239 238s238 -103 238 -238c0 -137 -98 -240 -238 -240zM255 590c72 0 116 52 116 126c0 73 -44 124 -116 124c-73 0 -118 -51 -118 -124c0 -74 45 -126 118 -126z" />
    <glyph glyph-name="P.sups" horiz-adv-x="438" 
d="M32 484v463h208c101 0 176 -67 177 -158s-76 -157 -177 -157h-88v-148h-120zM152 748h96c33 0 52 16 52 41c0 26 -19 42 -52 42h-96v-83z" />
    <glyph glyph-name="Q.sups" horiz-adv-x="509" 
d="M255 476c-140 0 -239 101 -239 235c0 135 99 236 239 236s238 -101 238 -236c0 -48 -12 -93 -35 -129l38 -37l-84 -84l-42 42c-33 -18 -73 -27 -115 -27zM255 590c9 0 17 1 25 3l-58 58l84 83l61 -61c3 12 4 25 4 38c0 73 -44 122 -116 122c-73 0 -118 -49 -118 -122
c0 -72 45 -121 118 -121z" />
    <glyph glyph-name="R.sups" horiz-adv-x="457" 
d="M32 484v463h208c100 0 176 -66 177 -157c1 -57 -29 -104 -76 -131l102 -175h-131l-81 148h-79v-148h-120zM152 749h96c33 0 53 15 53 41c0 25 -20 41 -53 41h-96v-82z" />
    <glyph glyph-name="S.sups" horiz-adv-x="460" 
d="M252 476c-114 0 -205 63 -238 169l115 34c17 -57 66 -92 122 -92c41 0 70 16 70 39c0 18 -12 27 -48 36l-101 23c-103 24 -146 60 -146 127c0 88 77 143 207 143c103 0 182 -60 215 -157l-116 -30c-17 51 -52 75 -114 75c-47 0 -71 -11 -71 -31c0 -14 9 -19 46 -28
l60 -14c153 -35 192 -65 192 -145c0 -89 -78 -149 -193 -149z" />
    <glyph glyph-name="T.sups" horiz-adv-x="397" 
d="M138 484v347h-137v116h395v-116h-137v-347h-121z" />
    <glyph glyph-name="U.sups" horiz-adv-x="491" 
d="M245 476c-133 0 -223 97 -223 231v240h120v-242c0 -70 37 -110 103 -110c67 0 103 40 103 110v242h121v-240c0 -134 -90 -231 -224 -231z" />
    <glyph glyph-name="V.sups" horiz-adv-x="487" 
d="M189 484l-186 463h129l115 -305h5l111 305h122l-171 -463h-125z" />
    <glyph glyph-name="W.sups" horiz-adv-x="648" 
d="M129 484l-126 463h118l78 -314h5l68 314h104l68 -315h6l80 315h116l-127 -463h-136l-54 218h-5l-55 -218h-140z" />
    <glyph glyph-name="X.sups" horiz-adv-x="497" 
d="M3 484l175 233l-169 230h145l97 -137h6l102 137h135l-171 -229l171 -234h-147l-97 136h-6l-99 -136h-142z" />
    <glyph glyph-name="Y.sups" horiz-adv-x="478" 
d="M178 484v181l-175 282h136l97 -158h5l99 158h135l-177 -282v-181h-120z" />
    <glyph glyph-name="Z.sups" horiz-adv-x="422" 
d="M16 484v94l229 252v5h-229v112h391v-94l-226 -252v-6h226v-111h-391z" />
    <glyph glyph-name="exclam.sups" horiz-adv-x="189" 
d="M43 663v284h104v-284h-104zM29 484v130h131v-130h-131z" />
    <glyph glyph-name="question.sups" horiz-adv-x="350" 
d="M101 647v4c0 62 38 91 73 112c32 21 62 34 62 63c0 28 -30 41 -59 41s-61 -13 -61 -41h-106c0 74 69 129 168 129s168 -55 168 -129c0 -54 -33 -79 -67 -99c-34 -21 -69 -38 -69 -77v-3h-109zM89 484v130h129v-130h-129z" />
    <glyph glyph-name="emdash.sups" horiz-adv-x="526" 
d="M11 601v103h504v-103h-504z" />
    <glyph glyph-name="endash.sups" horiz-adv-x="370" 
d="M16 601v103h339v-103h-339z" />
    <glyph glyph-name="hyphen.sups" horiz-adv-x="249" 
d="M34 599v106h180v-106h-180z" />
    <glyph glyph-name="arrowleft.sups" horiz-adv-x="378" 
d="M196 456l-188 188l188 188l47 -47l-103 -103h230v-74h-229l103 -103z" />
    <glyph glyph-name="arrowright.sups" horiz-adv-x="378" 
d="M182 456l-47 47l103 103h-230v74h229l-103 103l48 49l188 -188z" />
    <glyph glyph-name="arrowdown.sups" horiz-adv-x="390" 
d="M194 463l-186 186l48 49l102 -102v229h74v-230l103 103l47 -47z" />
    <glyph glyph-name="arrowup.sups" horiz-adv-x="390" 
d="M158 463v230l-103 -103l-47 47l188 188l186 -186l-48 -49l-102 102v-229h-74z" />
    <glyph glyph-name="uni2196.sups" horiz-adv-x="374" 
d="M306 472l-214 214v-146h-68v264h264v-67h-142l212 -213z" />
    <glyph glyph-name="uni2197.sups" horiz-adv-x="374" 
d="M68 472l-52 52l212 213h-142v67h264v-264h-68v146z" />
    <glyph glyph-name="uni2198.sups" horiz-adv-x="374" 
d="M86 484v67h142l-212 213l52 52l214 -214v146h68v-264h-264z" />
    <glyph glyph-name="uni2199.sups" horiz-adv-x="374" 
d="M24 484v264h68v-146l214 214l52 -52l-212 -213h142v-67h-264z" />
    </font>
</defs>
</svg>
